<svg width="224" height="240" viewBox="0 0 224 240" fill="none" xmlns="http://www.w3.org/2000/svg">
<path d="M170.916 0H155.232V40.2451C138.341 24.2006 119.038 16.1783 96.5171 16.1783C38.2047 16.1783 0 65.5153 0 128.089C0 189.861 38.2047 240 96.5171 240C121.853 240 143.167 229.972 160.862 211.521L160.862 211.253H224V0H178.959V195.209H170.916V0Z" fill="#38BDF8" fill-opacity="0.07"/>
<g clip-path="url(#clip0_799_2779)">
<g filter="url(#filter0_d_799_2779)">
<path d="M118.273 97.3438H77.7266C73.6719 97.3438 70.3906 100.672 70.3906 104.727L70.3438 152.656L81.4062 141.594H118.273C122.328 141.594 125.656 138.266 125.656 134.211V104.727C125.656 100.672 122.328 97.3438 118.273 97.3438ZM100.062 133.391C99.5 133.93 98.7734 134.211 97.9766 134.211C97.1797 134.211 96.4531 133.93 95.8906 133.344C95.3281 132.758 95.0469 132.055 95.0469 131.234C95.0469 130.367 95.3281 129.664 95.8906 129.125C96.4531 128.539 97.1797 128.305 97.9766 128.305C98.8203 128.305 99.5469 128.563 100.109 129.125C100.672 129.664 100.953 130.367 100.953 131.234C100.953 132.102 100.625 132.828 100.062 133.391ZM105.688 117.594C105.312 118.039 104.188 119.094 102.266 120.758C101.492 121.414 100.93 122.141 100.555 122.867C100.109 123.688 99.8984 124.555 99.8984 125.539V126.242H95.5391V125.539C95.5391 124.039 95.7734 122.75 96.3594 121.695C96.8984 120.57 98.4453 118.906 100.953 116.68L101.656 115.906C102.383 114.969 102.805 114.008 102.805 112.953C102.805 111.547 102.406 110.445 101.633 109.625C100.812 108.805 99.6406 108.406 98.1875 108.406C96.3594 108.406 95.0234 108.969 94.2031 110.141C93.4766 111.125 93.1016 112.484 93.1016 114.266H88.7891C88.7891 111.312 89.6328 108.992 91.3438 107.305C93.0547 105.57 95.4219 104.703 98.4219 104.703C101.023 104.703 103.133 105.406 104.773 106.859C106.414 108.266 107.211 110.234 107.211 112.648C107.211 114.641 106.695 116.305 105.688 117.594Z" fill="#1B6E93"/>
</g>
</g>
<defs>
<filter id="filter0_d_799_2779" x="66.3438" y="97.3438" width="63.3125" height="63.3125" filterUnits="userSpaceOnUse" color-interpolation-filters="sRGB">
<feFlood flood-opacity="0" result="BackgroundImageFix"/>
<feColorMatrix in="SourceAlpha" type="matrix" values="0 0 0 0 0 0 0 0 0 0 0 0 0 0 0 0 0 0 127 0" result="hardAlpha"/>
<feOffset dy="4"/>
<feGaussianBlur stdDeviation="2"/>
<feComposite in2="hardAlpha" operator="out"/>
<feColorMatrix type="matrix" values="0 0 0 0 0 0 0 0 0 0 0 0 0 0 0 0 0 0 0.25 0"/>
<feBlend mode="normal" in2="BackgroundImageFix" result="effect1_dropShadow_799_2779"/>
<feBlend mode="normal" in="SourceGraphic" in2="effect1_dropShadow_799_2779" result="shape"/>
</filter>
<clipPath id="clip0_799_2779">
<rect width="60" height="60" fill="white" transform="translate(68 95)"/>
</clipPath>
</defs>
</svg>
