<svg width="96" height="21" viewBox="0 0 96 21" fill="none" xmlns="http://www.w3.org/2000/svg">
<path d="M11.25 5.57812C11.25 8.2964 9.04643 10.5 6.32813 10.5H1.40625V5.57812C1.40625 2.85985 3.60985 0.65625 6.32813 0.65625C9.04643 0.65625 11.25 2.85985 11.25 5.57812Z" fill="#17CF97"/>
<path d="M11.25 15.4219C11.25 12.7037 13.4536 10.5 16.1719 10.5H21.0938V15.4219C21.0938 18.1402 18.8902 20.3438 16.1719 20.3438C13.4536 20.3438 11.25 18.1402 11.25 15.4219Z" fill="#17CF97"/>
<path d="M1.40625 15.4219C1.40625 18.1402 3.60985 20.3438 6.32813 20.3438H11.25V15.4219C11.25 12.7037 9.04643 10.5 6.32813 10.5C3.60985 10.5 1.40625 12.7037 1.40625 15.4219Z" fill="#17CF97"/>
<path d="M21.0938 5.57812C21.0938 2.85985 18.8902 0.65625 16.1719 0.65625H11.25V5.57812C11.25 8.2964 13.4536 10.5 16.1719 10.5C18.8902 10.5 21.0938 8.2964 21.0938 5.57812Z" fill="#17CF97"/>
<path d="M28.677 13.257V16.875H26.229V3.91504H31.701C31.953 3.91504 32.448 3.92404 32.781 3.98704C34.329 4.23004 35.247 4.83304 35.751 5.93104C36.003 6.48004 36.129 7.11904 36.129 7.84804C36.129 9.57604 35.652 11.034 33.501 11.169L33.546 12.456H29.487C28.848 12.456 28.659 12.357 28.29 12.105L28.155 12.258C28.488 12.546 28.677 12.816 28.677 13.257ZM30.873 11.394C32.295 11.394 33.69 11.322 34.653 11.52C35.058 11.61 35.418 11.826 35.733 12.159C35.985 12.429 36.111 12.861 36.111 13.455C36.111 14.058 36.111 14.508 36.111 14.814V16.875H33.681V14.805C33.681 14.049 33.69 13.428 33.483 13.059C33.267 12.654 32.925 12.456 32.448 12.456C31.971 12.456 31.449 12.456 30.873 12.456V11.394ZM28.155 10.53L28.299 10.674C28.614 10.359 28.902 10.197 29.487 10.197H31.593C31.845 10.197 32.169 10.179 32.421 10.107C33.078 9.92704 33.42 9.45904 33.564 8.93704C33.627 8.67604 33.663 8.43304 33.663 8.19904C33.663 7.73104 33.546 7.17304 33.186 6.74104C33.006 6.53404 32.754 6.38104 32.421 6.29104C32.169 6.21904 31.845 6.20104 31.593 6.20104H29.487C28.947 6.20104 28.713 6.01204 28.38 5.63404L28.209 5.75104C28.497 6.09304 28.677 6.49804 28.677 7.00204V9.46804C28.677 10.017 28.479 10.242 28.155 10.53ZM42.3556 17.145C40.3666 17.145 38.8006 16.236 37.9456 14.724C37.5136 13.977 37.2976 13.113 37.2976 12.141C37.2976 10.017 38.1886 8.40604 39.6646 7.53304C40.4026 7.10104 41.2486 6.88504 42.2116 6.88504C44.2546 6.88504 45.7126 7.89304 46.3966 9.63004C46.7386 10.503 46.8556 11.52 46.7566 12.699H44.3356V11.799C44.3356 9.81904 43.7506 9.00904 42.3196 9.00904C40.6546 9.00904 39.8896 10.035 39.8896 12.015C39.8896 13.824 40.6906 14.859 42.2116 14.859C43.1746 14.859 43.8676 14.427 44.2276 13.635H46.7926C46.3156 16.038 44.2276 17.145 42.3556 17.145ZM45.5776 12.699H39.1336V10.881H39.9076L39.8266 11.709H40.1146C40.1776 11.169 40.5826 10.881 41.2576 10.881H45.5776V12.699ZM52.6228 17.145C50.6068 17.145 49.1398 16.182 48.3748 14.634C47.9878 13.86 47.7988 12.987 47.7988 12.015C47.7988 10.044 48.6358 8.44204 50.0848 7.55104C50.8138 7.11004 51.6688 6.88504 52.6588 6.88504C54.9538 6.88504 56.7088 8.17204 57.0328 10.773H54.5848C54.2968 9.76504 53.5228 9.17104 52.6228 9.17104C51.1198 9.17104 50.3908 10.314 50.3908 12.015C50.3908 13.707 51.1468 14.859 52.6228 14.859C53.7298 14.859 54.2428 14.337 54.5308 13.401H57.0328C56.7088 15.957 54.8818 17.145 52.6228 17.145ZM62.4932 17.145C60.5402 17.145 59.0192 16.218 58.2002 14.67C57.7862 13.905 57.5792 13.014 57.5792 12.015C57.5792 9.99004 58.4702 8.39704 59.9462 7.53304C60.6842 7.10104 61.5302 6.88504 62.4932 6.88504C64.4462 6.88504 65.9762 7.81204 66.8042 9.35104C67.2182 10.125 67.4252 11.016 67.4252 12.015C67.4252 14.031 66.5432 15.624 65.0672 16.488C64.3202 16.929 63.4652 17.145 62.4932 17.145ZM62.4932 14.859C64.0682 14.859 64.8332 13.68 64.8332 12.015C64.8332 10.287 64.0412 9.17104 62.4932 9.17104C60.9362 9.17104 60.1712 10.269 60.1712 12.015C60.1712 13.752 60.9722 14.859 62.4932 14.859ZM71.4204 16.875H68.9544V7.15504H71.1144V7.58704C71.1144 8.23504 70.9434 8.87404 70.7634 9.53104H70.9704C71.2854 8.62204 71.5374 8.04604 71.7264 7.78504C72.0864 7.27204 72.5814 7.12804 73.2744 7.12804H74.6604V9.37804L73.0584 9.38704C72.4554 9.37804 72.0324 9.50404 71.7894 9.76504C71.5284 10.044 71.4024 10.539 71.4294 11.241L71.4204 16.875ZM79.3372 17.145C77.6813 17.145 76.4033 16.182 75.7193 14.634C75.3683 13.86 75.1973 12.987 75.1973 12.015C75.1973 10.035 75.9352 8.44204 77.2132 7.55104C77.8523 7.11004 78.5993 6.88504 79.4543 6.88504C81.9203 6.88504 83.3693 8.96404 83.3693 12.015C83.3693 15.066 81.9202 17.145 79.3372 17.145ZM84.4673 3.91504V16.875H82.3073V16.677C82.3073 16.173 82.6313 15.588 82.9193 15.273L82.6583 15.084L82.3073 15.57V10.215H82.0013V8.03704L82.4063 8.46004L82.6313 8.30704C82.1993 7.89304 82.0013 7.37104 82.0013 7.02004V3.91504H84.4673ZM80.0753 14.967C81.1643 14.967 81.8033 14.454 82.0913 13.563C82.2353 13.122 82.3073 12.6 82.3073 12.015C82.3073 10.836 82.0373 9.92704 81.4073 9.43204C81.0923 9.18904 80.6783 9.06304 80.1653 9.06304C78.5813 9.06304 77.7893 10.296 77.7893 12.015C77.7893 13.752 78.5543 14.967 80.0753 14.967ZM90.3443 17.145C87.8963 17.145 86.3483 16.11 85.9613 13.581H88.5083C88.7153 14.49 89.4443 15.039 90.5243 15.039C91.4153 15.039 91.9102 14.679 91.9102 14.067C91.9102 13.68 91.7933 13.482 91.1273 13.257C90.7943 13.14 90.2723 12.996 89.5703 12.807C87.9863 12.402 87.0683 11.916 86.6453 11.214C86.4383 10.863 86.3303 10.44 86.3303 9.94504C86.3303 8.69404 86.9963 7.75804 88.1573 7.25404C88.7333 7.01104 89.4173 6.88504 90.2003 6.88504C91.7213 6.88504 92.9273 7.37104 93.6562 8.23504C94.0163 8.66704 94.2413 9.32404 94.3313 10.215H91.8203C91.7393 9.49504 91.1813 9.06304 90.2542 8.99104C89.3543 8.92804 88.7603 9.25204 88.7603 9.81904C88.7603 10.197 89.0123 10.377 89.6693 10.593C90.0383 10.71 90.5963 10.872 91.3523 11.061C93.4853 11.619 94.4123 12.393 94.4123 13.941C94.4123 15.93 92.8913 17.145 90.3443 17.145Z" fill="#1A191A"/>
</svg>
