<svg width="17" height="13" viewBox="0 0 17 13" fill="none" xmlns="http://www.w3.org/2000/svg">
<path d="M3.67891 2.96054C2.02539 4.38827 0.664062 5.57031 0.664062 5.58359C0.664062 5.59687 2.01211 6.77226 3.67227 8.19999L6.68711 10.7965L6.69375 9.12968L6.70039 7.46288H7.32461C10.107 7.46288 12.2719 7.96757 13.7395 8.96367C14.8816 9.73398 15.6918 10.8098 16.1832 12.2109L16.3293 12.6359V12.4301C16.3359 11.9586 16.2363 11.0953 16.1102 10.4844C15.5723 7.8414 13.8723 5.79609 11.2625 4.64062C10.0273 4.08945 8.5 3.73085 7.15859 3.66445L6.71367 3.64453L6.70039 2.01093L6.68711 0.370697L3.67891 2.96054Z" fill="#666666"/>
</svg>
