<svg width="29" height="29" viewBox="0 0 29 29" fill="none" xmlns="http://www.w3.org/2000/svg">
<path d="M22.9583 27.7917L21.2667 26.1L23.1698 24.1667H18.125V21.75H23.1698L21.2667 19.8167L22.9583 18.125L27.7917 22.9583L22.9583 27.7917ZM6.04167 25.375C5.37708 25.375 4.80836 25.1386 4.3355 24.6657C3.86264 24.1928 3.62581 23.6237 3.625 22.9583V6.04167C3.625 5.37708 3.86183 4.80836 4.3355 4.3355C4.80917 3.86264 5.37789 3.62581 6.04167 3.625H22.9583C23.6229 3.625 24.192 3.86183 24.6657 4.3355C25.1394 4.80917 25.3758 5.37789 25.375 6.04167V16.1313C24.9924 15.9903 24.5948 15.8848 24.1824 15.8147C23.7699 15.7446 23.3518 15.7091 22.9281 15.7083C22.1427 15.7083 21.3976 15.8292 20.6927 16.0708C19.9878 16.3125 19.3434 16.6448 18.7594 17.0677L16.1917 14.5L19.6354 11.0562L17.9438 9.36458L14.5 12.8083L11.0562 9.36458L9.36458 11.0562L12.8083 14.5L9.36458 17.9438L11.0562 19.6354L14.5 16.1917L17.0677 18.7594C16.6448 19.3434 16.3125 19.9931 16.0708 20.7084C15.8292 21.4238 15.7083 22.1737 15.7083 22.9583C15.7083 23.3813 15.7438 23.7941 15.8147 24.1969C15.8856 24.5997 15.9911 24.9924 16.1313 25.375H6.04167Z" fill="black"/>
</svg>
