<svg width="22" height="22" viewBox="0 0 22 22" fill="none" xmlns="http://www.w3.org/2000/svg">
<path d="M8.13033 0.928128C7.70065 1.07422 7.38268 1.3836 7.2108 1.82188C7.14205 2.00235 7.11627 2.19141 7.09908 2.74141L7.0819 3.42891H5.19127C3.0858 3.42891 3.05143 3.4375 2.74205 3.72969C2.25221 4.21094 2.36393 5.01875 2.97408 5.33672C3.18893 5.44844 3.26627 5.46563 3.6358 5.46563H4.0569L4.06549 13.0023C4.08268 19.9203 4.08268 20.5477 4.16002 20.6766C4.26315 20.8656 4.40924 20.9945 4.61549 21.0805C4.76158 21.1406 5.49205 21.1492 11.0092 21.1492C16.9561 21.1492 17.2483 21.1406 17.4202 21.0633C17.6436 20.9602 17.8327 20.7539 17.8928 20.5219C17.9186 20.4102 17.9358 17.8922 17.9358 12.9078V5.45703H18.3569C18.735 5.45703 18.8124 5.43985 19.0186 5.32813C19.371 5.13907 19.5256 4.90703 19.5514 4.51172C19.5772 4.16797 19.4913 3.95313 19.2592 3.7211C18.9756 3.4375 19.0444 3.4461 16.8874 3.42891L14.9108 3.41172L14.8936 2.69844C14.8764 1.99375 14.8678 1.97657 14.7303 1.68438C14.5671 1.35782 14.335 1.12578 13.9999 0.962503L13.7936 0.859378H11.0694C8.67174 0.850785 8.3108 0.859378 8.13033 0.928128ZM13.5014 2.26016C13.5358 2.29453 13.553 2.50078 13.553 2.87032V3.42891H11.0006H8.4483V2.90469C8.4483 2.6211 8.47408 2.3461 8.49127 2.29453C8.53424 2.21719 8.61158 2.2086 10.9921 2.2086C12.8397 2.2086 13.4585 2.21719 13.5014 2.26016ZM16.2256 12.4609V19.4648H11.0006H5.78424V12.4609V5.45703H11.0006H16.2171V12.4609H16.2256Z" fill="black"/>
<path d="M7.54652 7.7C7.31449 7.86328 7.31449 7.73438 7.31449 12.5984C7.31449 17.4625 7.3059 17.3336 7.54652 17.4969C7.68402 17.5914 7.9934 17.5914 8.1223 17.4969C8.36293 17.325 8.35433 17.5398 8.35433 12.5984C8.35433 7.65703 8.36293 7.87188 8.1223 7.7C7.9934 7.60547 7.68402 7.61406 7.54652 7.7Z" fill="black"/>
<path d="M10.7164 7.7C10.4844 7.86328 10.4844 7.73438 10.4844 12.5984C10.4844 17.4625 10.4758 17.3336 10.7164 17.4969C10.8539 17.5914 11.1633 17.5914 11.2922 17.4969C11.5329 17.325 11.5243 17.5398 11.5243 12.5984C11.5243 7.65703 11.5329 7.87188 11.2922 7.7C11.1547 7.60547 10.8454 7.61406 10.7164 7.7Z" fill="black"/>
<path d="M13.8805 7.7C13.6485 7.86328 13.6485 7.73438 13.6485 12.5984C13.6485 17.4625 13.6399 17.3336 13.8805 17.4969C14.061 17.6172 14.3446 17.5914 14.5164 17.4367L14.6625 17.3078V12.5984V7.88906L14.5164 7.76016C14.3446 7.60547 14.0524 7.57969 13.8805 7.7Z" fill="black"/>
</svg>
