<svg width="22" height="22" viewBox="0 0 22 22" fill="none" xmlns="http://www.w3.org/2000/svg">
<g clip-path="url(#clip0_1215_1209)">
<path d="M16.9467 0.910938C16.8007 0.936719 16.5342 1.03984 16.3538 1.12578C16.0358 1.28047 15.9585 1.34063 14.9702 2.3375L13.9132 3.38594H8.52487C2.50066 3.38594 2.853 3.36875 2.24284 3.66953C1.64987 3.96172 1.21159 4.48594 0.962375 5.16484L0.867844 5.42266L0.85925 12.1C0.850656 19.5164 0.833469 19.1211 1.10847 19.6883C1.46081 20.4102 2.09675 20.9086 2.88737 21.0719C3.15378 21.1234 3.91863 21.132 9.73659 21.132C16.9897 21.132 16.603 21.1406 17.1702 20.8742C17.9007 20.5219 18.3991 19.8773 18.5538 19.0867C18.6053 18.8117 18.6139 18.2273 18.6053 13.9391L18.5967 9.10078L18.4936 8.88594C18.3475 8.57656 18.2272 8.43906 17.935 8.28438C17.7116 8.16406 17.6514 8.15547 17.3507 8.14688C16.7319 8.14688 16.8952 8.01797 14.3944 10.5016C12.4522 12.4438 12.1514 12.7188 11.9796 12.7875C11.8077 12.8562 11.6702 12.8648 10.9053 12.8648C10.0632 12.8648 10.0288 12.8648 9.83112 12.7703C9.58191 12.6414 9.34128 12.4008 9.21237 12.1516C9.11784 11.9625 9.11784 11.9281 9.11784 11.0773C9.11784 10.3125 9.12644 10.1836 9.19519 10.0031C9.25534 9.83984 9.41862 9.65078 10.1147 8.94609C11.0171 8.02656 11.0428 7.98359 10.9827 7.65703C10.9483 7.46797 10.6905 7.21875 10.51 7.18437C10.1663 7.12422 10.1405 7.14141 9.178 8.1125C8.353 8.94609 8.26706 9.03203 8.12097 9.34141C7.84597 9.9 7.82878 10.0375 7.84597 11.7133L7.85456 13.1828L7.95769 13.4062C8.08659 13.6898 8.30144 13.9047 8.58503 14.0336L8.80847 14.1367L10.278 14.1453C11.9538 14.1539 12.0913 14.1453 12.6499 13.8703C12.9592 13.7156 13.0366 13.6469 14.9186 11.7734C15.9928 10.7078 16.9038 9.83125 16.9553 9.81406C17.0757 9.77969 17.2561 9.85703 17.3163 9.96875C17.3507 10.0289 17.3592 11.1461 17.3507 14.3602L17.3421 18.657L17.1874 18.9578C16.9639 19.4133 16.5944 19.7141 16.1217 19.8258C16.0186 19.8516 13.6897 19.8687 9.71941 19.8687C3.49753 19.8687 3.48034 19.8687 3.23112 19.7828C2.74987 19.6281 2.35456 19.2242 2.20847 18.7602C2.13112 18.5023 2.13112 18.3992 2.13972 12.1773C2.14831 5.98984 2.14831 5.86094 2.22566 5.67188C2.40612 5.23359 2.80144 4.86406 3.23112 4.73516C3.48034 4.65781 3.60925 4.65781 8.95456 4.65781H14.4288L15.5975 3.48906C16.3366 2.75 16.8264 2.29453 16.9467 2.23438C17.1014 2.15703 17.1874 2.13984 17.5053 2.13984C17.8233 2.13984 17.9092 2.15703 18.0639 2.23438C18.3132 2.36328 19.6108 3.66094 19.7569 3.91875C19.86 4.09922 19.8686 4.15937 19.8686 4.49453C19.8686 4.83828 19.86 4.88984 19.7569 5.07891C19.6022 5.35391 19.4132 5.52578 19.2499 5.52578C19.1467 5.52578 19.0264 5.42266 18.3303 4.73516C17.6772 4.09062 17.5053 3.93594 17.3678 3.89297C16.9038 3.75547 16.4655 4.20234 16.603 4.65781C16.646 4.80391 16.8092 4.98438 17.5655 5.74922C18.6655 6.85781 18.7257 6.89219 19.2585 6.89219C19.7483 6.89219 19.9116 6.80625 20.3757 6.325C20.9428 5.73203 21.1921 5.09609 21.1491 4.34844C21.1233 3.92734 21.046 3.65234 20.8569 3.27422C20.7366 3.04219 20.5819 2.86172 19.86 2.13984C19.0522 1.33203 18.9835 1.27187 18.6655 1.11719C18.0983 0.859375 17.5225 0.790625 16.9467 0.910938Z" fill="black"/>
<path d="M11.6966 5.66328C11.5334 5.73203 11.3701 5.93828 11.3357 6.10156C11.2927 6.33359 11.3529 6.51406 11.5162 6.67734C11.6107 6.77187 11.7224 6.84063 11.8083 6.85781C12.0404 6.90078 12.2209 6.84922 12.3841 6.67734C12.8826 6.1875 12.3326 5.38828 11.6966 5.66328Z" fill="black"/>
</g>
<defs>
<clipPath id="clip0_1215_1209">
<rect width="22" height="22" fill="white"/>
</clipPath>
</defs>
</svg>
